<svg xmlns="http://www.w3.org/2000/svg" version="1.1" xmlns:xlink="http://www.w3.org/1999/xlink" xmlns:svgjs="http://svgjs.dev/svgjs" width="1000" height="1000" viewBox="0 0 1000 1000"><rect width="1000" height="1000" fill="#000000"></rect><g transform="matrix(0.7,0,0,0.7,149.57575757575756,444.754502811245)"><svg viewBox="0 0 396 63" data-background-color="#ffffff" preserveAspectRatio="xMidYMid meet" height="159" width="1000" xmlns="http://www.w3.org/2000/svg" xmlns:xlink="http://www.w3.org/1999/xlink"><defs></defs><g id="tight-bounds" transform="matrix(1,0,0,1,0.2400000000000091,-0.22896385542168218)"><svg viewBox="0 0 395.52 63.45792771084338" height="63.45792771084338" width="395.52"><g><svg viewBox="0 0 395.52 63.45792771084338" height="63.45792771084338" width="395.52"><g><svg viewBox="0 0 395.52 63.45792771084338" height="63.45792771084338" width="395.52"><g><svg viewBox="0 0 395.52 63.45792771084338" height="63.45792771084338" width="395.52"><g><svg viewBox="0 0 395.52 63.45792771084338" height="63.45792771084338" width="395.52"><g transform="matrix(1,0,0,1,0,0)"><svg width="395.52" viewBox="0.25 -38.95000076293945 248.9600067138672 39.95000076293945" height="63.45792771084338" data-palette-color="#8a8d92"><path d="M8.25 0.3Q7.75 0.3 7.5-0.08 7.25-0.45 7.25-1L7.25-1 7.25-5.45 7.25-9.9 7.15-17.9Q7-23.25 7-25.9L7-25.9 7.05-27.35 7.05-30.6Q7.05-36 6.95-36L6.95-36 1.3-36Q0.9-36 0.58-36.2 0.25-36.4 0.25-36.75L0.25-36.75Q0.25-37.15 0.4-37.3 0.55-37.45 1.2-37.55L1.2-37.55Q1.9-37.7 3.2-37.7L3.2-37.7 8.2-37.7 13.7-37.75Q14.3-37.75 14.53-37.55 14.75-37.35 14.75-36.9L14.75-36.9Q14.75-36.15 13.8-36.15L13.8-36.15 11.55-36.15 9.35-36.15 8.9-36.1 8.95-33.2 8.95-29.3 8.95-9 8.95-4.85 9-1.15 9-1.05Q9-0.65 8.95-0.38 8.9-0.1 8.75 0.05L8.75 0.05Q8.6 0.3 8.25 0.3L8.25 0.3ZM28.55 0.55Q28.55 0.05 27.05 0.05L27.05 0.05Q26.8-9.2 26.8-13.35L26.8-13.35 26.65-13.55 26.85-14Q26.85-14.9 26.65-15.85L26.65-15.85 25.9-16.05Q25.45-15.9 24.9-15.9L24.9-15.9Q24.5-15.9 23.25-16.15L23.25-16.15Q22.4-16.4 21.7-16.4L21.7-16.4 21.15-16.2Q21.15-14.45 21.1-13.05L21.1-13.05Q21.05-11.65 21.05-9.9L21.05-9.9 21.15-9.7Q21.15-8.3 21.3-5.5L21.3-5.5Q21.45-2.75 21.45-1.35L21.45-1.35Q21.45-0.8 21.25-0.43 21.05-0.05 20.65-0.05L20.65-0.05Q19.55-0.05 19.55-3.05L19.55-3.05Q19.55-5.6 19.6-7.65L19.6-7.65 19.65-12.2Q19.65-16.75 19.5-17.1L19.5-17.1Q19.75-17.6 19.75-20.4L19.75-20.4Q19.75-22.8 19.55-26.25L19.55-26.25 19.45-28.2 19.35-32.1Q19.35-32.45 19.6-32.75 19.85-33.05 20.2-33.05L20.2-33.05Q21.2-33.05 21.2-30.15L21.2-30.15Q21.2-26.75 21.15-24L21.15-24Q21.05-21.25 21.05-17.95L21.05-17.95Q21.05-17.35 24.85-17.35L24.85-17.35 25.05-17.35Q26-17.35 26.42-17.73 26.85-18.1 26.85-19L26.85-19Q26.85-21.65 26.5-25.9L26.5-25.9Q26.2-30.5 26.2-32.8L26.2-32.8Q26.2-33.1 26.45-33.33 26.7-33.55 27.05-33.55L27.05-33.55 27.5-33.4Q27.85-33.35 27.95-33.25L27.95-33.25Q27.95-29.35 28.25-21.6L28.25-21.6Q28.55-13.8 28.55-9.9L28.55-9.9Q28.55-4 28.9 0L28.9 0 28.55 0.55ZM25.4-17.95L25.4-18.05 25.5-17.95 25.4-17.95ZM36.84 0.65Q35.95 0.65 35.84-0.4L35.84-0.4 35.84-1.05Q35.9-1.3 35.9-1.65L35.9-1.65 35.7-1.85Q36.09-2.9 36.09-3.9L36.09-3.9Q36.09-5.05 35.95-7.2L35.95-7.2 35.84-10.5Q35.84-13 36-18L36-18Q36.2-22.45 36.2-25.55L36.2-25.55 36.09-28.55Q36-29.9 36-31.55L36-31.55Q36-32.3 36.34-32.63 36.7-32.95 37.45-32.95L37.45-32.95Q37.95-32.95 38.25-32.65L38.25-32.65Q38.34-32.6 39.7-32.45L39.7-32.45Q40.95-32.3 41.84-32L41.84-32Q42.8-31.7 42.8-31.25L42.8-31.25Q42.8-30.75 41.84-30.25L41.84-30.25Q39-31.2 37.8-31.2L37.8-31.2 37.55-30.9Q37.59-30.45 37.59-28.75L37.59-28.75Q37.59-26.6 37.5-24.9L37.5-24.9Q37.45-23.15 37.45-21L37.45-21Q37.45-19.6 38.15-19.6L38.15-19.6 38.95-19.65Q39.34-19.7 39.8-19.7L39.8-19.7Q41.75-19.7 41.75-18.8L41.75-18.8Q41.75-18.25 41.5-17.88 41.25-17.5 40.75-17.5L40.75-17.5Q40-17.5 39.59-17.9L39.59-17.9 38-18.15 37.75-18.15 37.5-17.9 37.5-17.75Q37.59-16.9 37.59-13.8L37.59-13.8Q37.59-11.85 37.55-10.25L37.55-10.25 37.5-6.7Q37.5-4.75 37.65-2.7L37.65-2.7Q37.7-1.55 38.15-1.18 38.59-0.8 39.8-0.8L39.8-0.8 40.7-0.85Q41.15-0.9 41.7-0.9L41.7-0.9Q43.15-0.9 43.15-0.25L43.15-0.25Q43.15 0.65 40.95 0.65L40.95 0.65 36.84 0.65ZM67.24 0.55Q66.89 0.55 66.59 0.2 66.29-0.15 66.19-0.6L66.19-0.6 66.04-1.55Q65.89-2.15 65.89-2.3L65.89-2.3Q60.29-22.35 59.74-24.8L59.74-24.8Q59.29-26.6 57.69-34.8L57.69-34.8Q57.64-34.5 57.64-32.75L57.64-32.75 57.64-14.65 57.74-7.5 57.84-0.4 57.54 0 56.39 0 56.24-0.4Q56.34-0.9 56.34-2.4L56.34-2.4 56.29-11.1 56.19-19.8 56.19-26.35 56.19-31.1Q56.14-33.2 56.14-35.8L56.14-35.8Q56.14-36.1 56.09-36.35L56.09-36.35 56.09-36.85Q56.09-37.45 56.41-37.68 56.74-37.9 57.44-37.9L57.44-37.9Q57.74-37.9 58.12-37.6 58.49-37.3 58.59-36.95L58.59-36.95 59.64-32.05Q60.34-28.55 60.84-26.75L60.84-26.75Q61.89-22.6 64.44-13.15L64.44-13.15Q65.89-6.95 67.04-3.65L67.04-3.65Q67.34-4.4 67.34-6.05L67.34-6.05Q67.34-10.9 67.44-14.75L67.44-14.75 67.54-23.45Q67.54-25.6 67.59-27.35L67.59-27.35 67.59-31.2 67.54-38.25Q67.79-38.95 68.59-38.95L68.59-38.95Q68.99-38.95 68.99-37.5L68.99-37.5Q68.99-36.85 68.94-36.45L68.94-36.45Q68.94-36.05 68.92-35.88 68.89-35.7 68.89-35.65L68.89-35.65 68.89-32.45Q68.89-25.8 68.84-20.6L68.84-20.6Q68.79-15.35 68.79-8.8L68.79-8.8Q68.79-7.55 68.64-4.85L68.64-4.85 68.54-0.9Q68.54 0.55 67.24 0.55L67.24 0.55ZM77.14 0.65Q76.44 0.65 76.29-0.5L76.29-0.5Q76.39-0.8 76.39-2.15L76.39-2.15Q76.39-6.75 76.54-15.8L76.54-15.8Q76.69-24.8 76.69-28.8L76.69-28.8 76.79-30.6 76.94-32.1Q76.94-32.45 77.29-32.45L77.29-32.45Q77.54-32.45 77.99-32.3L77.99-32.3 78.14-32.25Q78.14-31.15 78.09-30.25L78.09-30.25 78.09-28.3 78.09-22.85Q78.14-20.45 78.14-17.4L78.14-17.4Q78.09-17.15 78.09-16.3L78.09-16.3 78.04-15.25Q77.99-14.25 77.99-13.2L77.99-13.2Q77.99-12.05 78.04-11.1L78.04-11.1 78.09-8.95 77.94-8.55 77.99-8.6Q77.99-8.45 77.94-8.4L77.94-8.4 77.94-8.2Q77.94-7.8 78.09-7.5L78.09-7.5 77.94-2.7 77.94-2.4Q77.94-1.55 77.99-1.4L77.99-1.4Q77.99-1.15 78.24-1.15L78.24-1.15 80.84-1.05Q81.99-1.05 82.41-1.03 82.84-1 82.94-1L82.94-1 83.09-1Q83.34-1 83.59-0.73 83.84-0.45 83.84-0.15L83.84-0.15Q83.84 0.45 83.04 0.5L83.04 0.5Q82.19 0.45 78.89 0.45L78.89 0.45 78.99 0.5Q78.49 0.5 78.04 0.55L78.04 0.55Q77.64 0.65 77.14 0.65L77.14 0.65ZM90.14 1L89.39 0.6Q88.84-2.55 88.84-6.6L88.84-6.6Q88.84-8.2 88.99-11.25L88.99-11.25 89.09-15.9Q88.74-16.6 88.74-17.05L88.74-17.05Q89.24-17.85 89.24-21.65L89.24-21.65Q89.24-30.75 88.99-31.35L88.99-31.35Q89.44-32.6 89.69-32.6L89.69-32.6 91.89-32.6Q92.44-32.6 93.46-32.08 94.49-31.55 95.19-30.95L95.19-30.95Q96.44-29.8 96.44-25.05L96.44-25.05Q96.44-22.5 96.29-21.15L96.29-21.15Q96.19-20.2 95.96-19.65 95.74-19.1 95.29-18.4L95.29-18.4Q94.54-17.25 92.74-16.4L92.74-16.4Q91.99-16 90.64-15.6L90.64-15.6 90.64-9.65Q90.64-8.4 90.89-4.75L90.89-4.75 90.99-3.15 91.09 0.1Q91.09 1 90.14 1L90.14 1ZM90.99-17.3Q92.44-17.3 93.44-18.65L93.44-18.65Q93.79-19.15 94.09-20 94.39-20.85 94.49-21.65L94.49-21.65Q94.79-23.1 94.79-25L94.79-25 94.79-26.35Q94.79-27.05 94.74-27.7 94.69-28.35 94.54-28.95L94.54-28.95Q94.34-29.6 94.01-30.03 93.69-30.45 93.14-30.75L93.14-30.75Q92.54-31.05 91.69-31.05L91.69-31.05Q91.09-31.05 90.84-30.75 90.59-30.45 90.59-29.7L90.59-29.7Q90.59-28.5 90.74-26.1L90.74-26.1 90.84-22.5Q90.84-21.2 90.74-20.15L90.74-20.15 90.64-17.8 90.99-17.3ZM116.88 0.8Q115.48 0.8 113.93-0.3 112.38-1.4 111.73-2.8L111.73-2.8Q111.13-4.1 110.51-11.05 109.88-18 109.88-21.4L109.88-21.4 109.88-24.05Q109.83-25.2 109.83-26.6L109.83-26.6Q109.83-29.2 110.13-31.75L110.13-31.75Q110.33-33 110.66-33.9 110.98-34.8 111.58-35.65L111.58-35.65Q112.68-37.35 114.88-37.9L114.88-37.9Q116.03-38.2 117.43-38.2L117.43-38.2Q118.38-38.2 119.36-37.65 120.33-37.1 120.33-36.35L120.33-36.35Q120.33-35.8 119.53-35.8L119.53-35.8Q119.23-35.8 118.38-36.15L118.38-36.15Q117.63-36.5 117.03-36.5L117.03-36.5Q115.63-36.5 114.51-35.93 113.38-35.35 112.73-34.4L112.73-34.4Q112.18-33.6 111.78-32.2 111.38-30.8 111.28-29.4L111.28-29.4Q111.13-28.15 111.13-26.4L111.13-26.4 111.18-23.6Q111.23-22.4 111.23-21L111.23-21Q111.23-17.55 111.93-10.85 112.63-4.15 113.28-3.1L113.28-3.1Q113.88-2.15 115.06-1.65 116.23-1.15 117.53-1.15L117.53-1.15Q119.83-1.15 121.03-2.6L121.03-2.6Q121.48-3.2 121.98-3.2L121.98-3.2Q122.43-3.2 122.43-2.5L122.43-2.5Q122.43-1.6 121.88-0.93 121.33-0.25 120.38 0.1L120.38 0.1Q118.78 0.8 116.88 0.8L116.88 0.8ZM132.08 0.95Q126.23 0.95 126.23-17.45L126.23-17.45 126.23-19.2Q126.23-33.15 129.83-33.15L129.83-33.15Q130.08-33.15 130.53-33L130.53-33Q132.13-32.45 133.68-32.3L133.68-32.3Q134.63-32.1 135.58-30.35L135.58-30.35Q136.63-28.55 137.15-25.6 137.68-22.65 137.68-19.55L137.68-19.55 137.58-19.3Q137.58-17.65 137.63-16.35L137.63-16.35 137.68-13.35Q137.68-10.8 137.48-8.75L137.48-8.75Q137.18-5.65 136.48-3.4L136.48-3.4Q136.03-2.05 135.45-1.15 134.88-0.25 134.03 0.35L134.03 0.35Q133.23 0.95 132.08 0.95L132.08 0.95ZM131.88-0.5Q133.83-0.5 134.78-3.25L134.78-3.25Q135.73-6.05 135.93-8.95L135.93-8.95Q136.13-11.95 136.13-13.75L136.13-13.75Q136.13-15.75 135.83-19.65L135.83-19.65Q135.58-24 135.58-25.55L135.58-25.55 135.38-25.95 135.48-26.2Q135.48-28.4 134.25-30 133.03-31.6 131.28-31.6L131.28-31.6Q128.98-31.6 128.53-29.4L128.53-29.4Q128.43-28.65 128.33-27.25L128.33-27.25Q128.33-23.55 128.03-22.2L128.03-22.2Q128.03-21.45 127.88-19.85L127.88-19.85 127.78-17.5Q127.78-16.4 127.83-15.55L127.83-15.55 127.88-13.55Q127.88-11.2 128.28-8.15L128.28-8.15Q128.58-5.9 128.98-4.35 129.38-2.8 130.13-1.7L130.13-1.7Q130.88-0.5 131.88-0.5L131.88-0.5ZM149.43 0.75Q148.63 0.75 147.7 0.23 146.78-0.3 146.18-1L146.18-1Q145.48-1.9 145.08-6.05 144.68-10.2 144.58-15.55L144.58-15.55Q144.58-16.75 144.53-17.35L144.53-17.35Q144.43-29.9 144.13-32.2L144.13-32.2 144.43-32.9Q145.58-32.75 145.58-30.15L145.58-30.15 145.73-16.9Q145.73-15.5 145.98-11.6L145.98-11.6Q146.28-8.1 146.28-6.3L146.28-6.3Q146.28-0.6 150.03-0.6L150.03-0.6Q152.33-0.6 152.98-11.1L152.98-11.1 153.03-12.1Q153.38-25.85 153.38-32.45L153.38-32.45 153.33-32.9Q153.28-33.1 153.28-33.35L153.28-33.35Q153.28-33.9 154.13-33.9L154.13-33.9Q154.73-33.9 154.88-33.6L154.88-33.6Q154.98-33.1 154.98-31.85L154.98-31.85Q154.98-28.05 154.68-26.75L154.68-26.75 154.73-26.45Q154.73-25.8 154.58-24.45L154.58-24.45 154.48-22.45 154.48-21.95Q154.53-21.75 154.53-21.45L154.53-21.45Q154.43-20.25 154.43-19.15L154.43-19.15Q154.38-18.8 154.38-18.05L154.38-18.05Q154.28-13.3 154.18-9.8L154.18-9.8Q154.03-5.45 152.98-2.45L152.98-2.45Q151.88 0.75 149.43 0.75L149.43 0.75ZM175.22 0.2Q174.82 0.2 174.65-0.1 174.47-0.4 174.32-1L174.32-1Q174.27-1.4 174.12-1.7L174.12-1.7 174.17-1.85Q173.77-4.2 172.47-7.6L172.47-7.6 171.57-10.2Q171.47-10.3 170.62-12.75L170.62-12.75 170.22-13.95Q165.72-27.85 164.57-29L164.57-29Q164.17-27.65 164.17-25.5L164.17-25.5Q164.17-24.35 164.22-23.5L164.22-23.5 164.27-21.55 164.22-20.35Q164.17-19.8 164.17-19.15L164.17-19.15Q164.17-18.05 164.27-17.25L164.27-17.25Q164.37-15.65 164.37-15.65L164.37-15.65 164.22-15.65Q164.22-7.3 164.57-6.45L164.57-6.45 164.57-1.95Q164.77-1.55 164.77-0.9L164.77-0.9Q164.77-0.5 164.5-0.2 164.22 0.1 163.82 0.1L163.82 0.1Q162.77 0.1 162.77-2.6L162.77-2.6 162.87-4.2Q162.97-4.95 162.97-5.85L162.97-5.85Q162.97-8.25 162.82-13.05L162.82-13.05Q162.67-17.85 162.67-20.25L162.67-20.25Q162.67-21.7 162.82-24.7L162.82-24.7Q162.97-27.65 162.97-29.1L162.97-29.1 162.97-29.75Q162.97-32.2 163.87-32.95L163.87-32.95 164.02-32.8 164.52-32.9Q164.72-32.85 164.97-32.6L164.97-32.6Q165.17-32.4 165.17-32.15L165.17-32.15 165.27-31.85Q165.27-31.75 165.3-31.68 165.32-31.6 165.32-31.6L165.32-31.6Q166.12-28.05 168.92-21.65L168.92-21.65Q171.77-14.9 172.47-12.7L172.47-12.7Q172.97-10.95 173.27-9.6L173.27-9.6Q174.22-5.35 175.52-3.05L175.52-3.05 175.62-3.2Q176.77-14.3 176.77-30.45L176.77-30.45 176.72-31.05Q176.67-31.3 176.67-31.7L176.67-31.7Q176.67-32.75 177.37-32.75L177.37-32.75Q177.82-32.75 178.15-32.3 178.47-31.85 178.47-31.3L178.47-31.3 178.47-27.95 178.22-27.55Q178.22-22.8 177.67-11.95 177.12-1.1 176.62-0.15L176.62-0.15 175.77 0.05 175.77 0.1 175.72 0.05 175.22 0.2ZM186.02 0.6Q185.47 0.5 184.97 0.18 184.47-0.15 184.42-0.6L184.42-0.6 184.67-1Q184.87-1 185.57-0.85L185.57-0.85Q186.12-0.65 186.47-0.65L186.47-0.65Q187.57-0.65 188.42-1.53 189.27-2.4 189.72-3.8L189.72-3.8Q190.42-6.4 190.42-8.7L190.42-8.7Q190.42-12.15 188.32-16.1L188.32-16.1Q187.02-18.4 186.32-19.75 185.62-21.1 185.07-22.85L185.07-22.85Q184.42-24.9 184.42-26.8L184.42-26.8Q184.42-28.6 185.32-31.05L185.32-31.05Q185.77-32.2 186.6-32.93 187.42-33.65 188.37-33.65L188.37-33.65Q189.02-33.65 189.65-33.2 190.27-32.75 190.27-32.25L190.27-32.25Q190.27-31.85 189.62-31.85L189.62-31.85Q189.42-31.85 189.12-32L189.12-32Q188.82-32.15 188.57-32.15L188.57-32.15Q187.82-32.15 187.22-31.55 186.62-30.95 186.32-30L186.32-30Q185.72-28.15 185.72-26.6L185.72-26.6Q185.72-25.65 185.97-24.65L185.97-24.65Q186.02-24.35 186.07-24.15 186.12-23.95 186.12-23.85L186.12-23.85 186.42-22.85 186.67-21.95 187.07-21.05Q187.22-20.7 187.4-20.43 187.57-20.15 187.72-19.9L187.72-19.9 188.32-18.85Q188.52-18.55 189.17-17.43 189.82-16.3 190.37-15.05L190.37-15.05Q190.87-14 191.12-13.08 191.37-12.15 191.57-10.85L191.57-10.85Q191.72-9.6 191.72-8.1L191.72-8.1Q191.72-5.7 191.07-3.6L191.07-3.6Q190.17-1.1 188.47-0.1L188.47-0.1Q187.52 0.5 186.27 0.5L186.27 0.5 186.02 0.6ZM189.97-32L190.02-32Q190.02-32.05 189.97-32.05L189.97-32.05 189.97-32ZM198.72 0.65Q197.82 0.65 197.72-0.4L197.72-0.4 197.72-1.05Q197.77-1.3 197.77-1.65L197.77-1.65 197.57-1.85Q197.97-2.9 197.97-3.9L197.97-3.9Q197.97-5.05 197.82-7.2L197.82-7.2 197.72-10.5Q197.72-13 197.87-18L197.87-18Q198.07-22.45 198.07-25.55L198.07-25.55 197.97-28.55Q197.87-29.9 197.87-31.55L197.87-31.55Q197.87-32.3 198.22-32.63 198.57-32.95 199.32-32.95L199.32-32.95Q199.82-32.95 200.12-32.65L200.12-32.65Q200.22-32.6 201.57-32.45L201.57-32.45Q202.82-32.3 203.72-32L203.72-32Q204.67-31.7 204.67-31.25L204.67-31.25Q204.67-30.75 203.72-30.25L203.72-30.25Q200.87-31.2 199.67-31.2L199.67-31.2 199.42-30.9Q199.47-30.45 199.47-28.75L199.47-28.75Q199.47-26.6 199.37-24.9L199.37-24.9Q199.32-23.15 199.32-21L199.32-21Q199.32-19.6 200.02-19.6L200.02-19.6 200.82-19.65Q201.22-19.7 201.67-19.7L201.67-19.7Q203.62-19.7 203.62-18.8L203.62-18.8Q203.62-18.25 203.37-17.88 203.12-17.5 202.62-17.5L202.62-17.5Q201.87-17.5 201.47-17.9L201.47-17.9 199.87-18.15 199.62-18.15 199.37-17.9 199.37-17.75Q199.47-16.9 199.47-13.8L199.47-13.8Q199.47-11.85 199.42-10.25L199.42-10.25 199.37-6.7Q199.37-4.75 199.52-2.7L199.52-2.7Q199.57-1.55 200.02-1.18 200.47-0.8 201.67-0.8L201.67-0.8 202.57-0.85Q203.02-0.9 203.57-0.9L203.57-0.9Q205.02-0.9 205.02-0.25L205.02-0.25Q205.02 0.65 202.82 0.65L202.82 0.65 198.72 0.65ZM211.47 0.65Q210.77 0.65 210.62-0.5L210.62-0.5Q210.72-0.8 210.72-2.15L210.72-2.15Q210.72-6.75 210.87-15.8L210.87-15.8Q211.02-24.8 211.02-28.8L211.02-28.8 211.12-30.6 211.27-32.1Q211.27-32.45 211.62-32.45L211.62-32.45Q211.87-32.45 212.32-32.3L212.32-32.3 212.47-32.25Q212.47-31.15 212.42-30.25L212.42-30.25 212.42-28.3 212.42-22.85Q212.47-20.45 212.47-17.4L212.47-17.4Q212.42-17.15 212.42-16.3L212.42-16.3 212.37-15.25Q212.32-14.25 212.32-13.2L212.32-13.2Q212.32-12.05 212.37-11.1L212.37-11.1 212.42-8.95 212.27-8.55 212.32-8.6Q212.32-8.45 212.27-8.4L212.27-8.4 212.27-8.2Q212.27-7.8 212.42-7.5L212.42-7.5 212.27-2.7 212.27-2.4Q212.27-1.55 212.32-1.4L212.32-1.4Q212.32-1.15 212.57-1.15L212.57-1.15 215.17-1.05Q216.32-1.05 216.74-1.03 217.17-1 217.27-1L217.27-1 217.42-1Q217.67-1 217.92-0.73 218.17-0.45 218.17-0.15L218.17-0.15Q218.17 0.45 217.37 0.5L217.37 0.5Q216.52 0.45 213.22 0.45L213.22 0.45 213.32 0.5Q212.82 0.5 212.37 0.55L212.37 0.55Q211.97 0.65 211.47 0.65L211.47 0.65ZM228.21 0.95Q222.36 0.95 222.36-17.45L222.36-17.45 222.36-19.2Q222.36-33.15 225.96-33.15L225.96-33.15Q226.21-33.15 226.66-33L226.66-33Q228.26-32.45 229.81-32.3L229.81-32.3Q230.76-32.1 231.71-30.35L231.71-30.35Q232.76-28.55 233.29-25.6 233.81-22.65 233.81-19.55L233.81-19.55 233.71-19.3Q233.71-17.65 233.76-16.35L233.76-16.35 233.81-13.35Q233.81-10.8 233.61-8.75L233.61-8.75Q233.31-5.65 232.61-3.4L232.61-3.4Q232.16-2.05 231.59-1.15 231.01-0.25 230.16 0.35L230.16 0.35Q229.36 0.95 228.21 0.95L228.21 0.95ZM228.01-0.5Q229.96-0.5 230.91-3.25L230.91-3.25Q231.86-6.05 232.06-8.95L232.06-8.95Q232.26-11.95 232.26-13.75L232.26-13.75Q232.26-15.75 231.96-19.65L231.96-19.65Q231.71-24 231.71-25.55L231.71-25.55 231.51-25.95 231.61-26.2Q231.61-28.4 230.39-30 229.16-31.6 227.41-31.6L227.41-31.6Q225.11-31.6 224.66-29.4L224.66-29.4Q224.56-28.65 224.46-27.25L224.46-27.25Q224.46-23.55 224.16-22.2L224.16-22.2Q224.16-21.45 224.01-19.85L224.01-19.85 223.91-17.5Q223.91-16.4 223.96-15.55L223.96-15.55 224.01-13.55Q224.01-11.2 224.41-8.15L224.41-8.15Q224.71-5.9 225.11-4.35 225.51-2.8 226.26-1.7L226.26-1.7Q227.01-0.5 228.01-0.5L228.01-0.5ZM248.66 0.85L247.96 0.6Q247.36-0.05 246.66-2.85 245.96-5.65 245.36-9.15L245.36-9.15Q244.96-12 244.21-14.8L244.21-14.8Q243.61-17.3 243.06-17.3L243.06-17.3 242.91-17.3Q241.81-17.3 241.81-16.6L241.81-16.6Q241.81-13 242.21-5.65L242.21-5.65Q242.41-1.15 242.66-0.4L242.66-0.4 242.26 0.45 241.56 0.45 241.16 0.05Q240.36-23.05 240.36-31.45L240.36-31.45Q240.36-32 240.44-32.35 240.51-32.7 240.76-33L240.76-33Q240.96-33.35 241.46-33.35L241.46-33.35Q244.01-33.35 245.56-32.1 247.11-30.85 247.11-28.5L247.11-28.5 247.11-24.85Q247.11-23.9 246.49-22.3 245.86-20.7 245.11-19.35L245.11-19.35 244.46-18.1Q245.01-15.55 246.64-8.93 248.26-2.3 248.41-1.9L248.41-1.9Q248.46-1.85 248.54-1.65 248.61-1.45 248.86-1.05L248.86-1.05Q249.21-0.35 249.21 0.15L249.21 0.15Q249.21 0.85 248.66 0.85L248.66 0.85ZM242.06-18.55Q243.01-18.55 243.76-19.5 244.51-20.45 244.96-21.95L244.96-21.95Q245.76-25 245.76-26.8L245.76-26.8Q245.76-27.95 245.64-28.7 245.51-29.45 245.21-30.3L245.21-30.3Q244.61-32.05 242.36-32.05L242.36-32.05Q242.11-32.05 241.96-31.63 241.81-31.2 241.81-30.75L241.81-30.75Q241.81-27.4 241.91-24.7L241.91-24.7Q241.96-22 241.96-18.65L241.96-18.65 242.06-18.55Z" opacity="1" transform="matrix(1,0,0,1,0,0)" fill="#ffffff" class="undefined-text-0" data-fill-palette-color="primary" id="text-0"></path></svg></g></svg></g></svg></g></svg></g></svg></g></svg><rect width="395.52" height="63.45792771084338" fill="none" stroke="none" visibility="hidden"></rect></g></svg></g></svg>